<mxfile host="65bd71144e">
    <diagram id="7Wzy6bwg34kRH8CJ6qxQ" name="Page-1">
        <mxGraphModel dx="2050" dy="1195" grid="1" gridSize="10" guides="1" tooltips="1" connect="1" arrows="1" fold="1" page="1" pageScale="1" pageWidth="850" pageHeight="1100" background="none" math="0" shadow="0">
            <root>
                <mxCell id="AfC1o_T5v_tklfGijFTy-0"/>
                <mxCell id="AfC1o_T5v_tklfGijFTy-1" parent="AfC1o_T5v_tklfGijFTy-0"/>
                <mxCell id="hb5l4Cqd5cQDOpiyAQqJ-0" value="&lt;font color=&quot;#ff0080&quot;&gt;MODBUS RS-485 Sensors&lt;/font&gt;" style="rounded=1;whiteSpace=wrap;html=1;fillColor=none;" parent="AfC1o_T5v_tklfGijFTy-1" vertex="1">
                    <mxGeometry x="70" y="120" width="120" height="60" as="geometry"/>
                </mxCell>
                <mxCell id="hb5l4Cqd5cQDOpiyAQqJ-1" value="&lt;font color=&quot;#ff0080&quot;&gt;Decode Payload&lt;/font&gt;" style="rounded=1;whiteSpace=wrap;html=1;fillColor=none;" parent="AfC1o_T5v_tklfGijFTy-1" vertex="1">
                    <mxGeometry x="70" y="210" width="120" height="60" as="geometry"/>
                </mxCell>
                <mxCell id="hb5l4Cqd5cQDOpiyAQqJ-2" value="&lt;font color=&quot;#ff0080&quot;&gt;Metadata Enhancement&lt;/font&gt;" style="rounded=1;whiteSpace=wrap;html=1;fillColor=none;" parent="AfC1o_T5v_tklfGijFTy-1" vertex="1">
                    <mxGeometry x="70" y="300" width="120" height="60" as="geometry"/>
                </mxCell>
                <mxCell id="hb5l4Cqd5cQDOpiyAQqJ-3" value="&lt;font color=&quot;#ff0080&quot;&gt;Data Formatting&lt;/font&gt;" style="rounded=1;whiteSpace=wrap;html=1;fillColor=none;" parent="AfC1o_T5v_tklfGijFTy-1" vertex="1">
                    <mxGeometry x="70" y="390" width="120" height="60" as="geometry"/>
                </mxCell>
                <mxCell id="hb5l4Cqd5cQDOpiyAQqJ-4" value="" style="endArrow=classic;html=1;exitX=0.5;exitY=1;exitDx=0;exitDy=0;entryX=0.5;entryY=0;entryDx=0;entryDy=0;" parent="AfC1o_T5v_tklfGijFTy-1" source="hb5l4Cqd5cQDOpiyAQqJ-0" target="hb5l4Cqd5cQDOpiyAQqJ-1" edge="1">
                    <mxGeometry width="50" height="50" relative="1" as="geometry">
                        <mxPoint x="240" y="205" as="sourcePoint"/>
                        <mxPoint x="290" y="155" as="targetPoint"/>
                    </mxGeometry>
                </mxCell>
                <mxCell id="hb5l4Cqd5cQDOpiyAQqJ-5" value="" style="endArrow=classic;html=1;exitX=0.5;exitY=1;exitDx=0;exitDy=0;entryX=0.5;entryY=0;entryDx=0;entryDy=0;" parent="AfC1o_T5v_tklfGijFTy-1" edge="1">
                    <mxGeometry width="50" height="50" relative="1" as="geometry">
                        <mxPoint x="129.80999999999995" y="270" as="sourcePoint"/>
                        <mxPoint x="129.80999999999995" y="300" as="targetPoint"/>
                    </mxGeometry>
                </mxCell>
                <mxCell id="hb5l4Cqd5cQDOpiyAQqJ-6" value="" style="endArrow=classic;html=1;exitX=0.5;exitY=1;exitDx=0;exitDy=0;entryX=0.5;entryY=0;entryDx=0;entryDy=0;" parent="AfC1o_T5v_tklfGijFTy-1" edge="1">
                    <mxGeometry width="50" height="50" relative="1" as="geometry">
                        <mxPoint x="129.80999999999995" y="360" as="sourcePoint"/>
                        <mxPoint x="129.80999999999995" y="390" as="targetPoint"/>
                    </mxGeometry>
                </mxCell>
                <mxCell id="DS9jZfVLnJsxjmvzRqQD-0" value="&lt;font color=&quot;#ff0080&quot;&gt;Local Storage&lt;/font&gt;" style="shape=cylinder3;whiteSpace=wrap;html=1;boundedLbl=1;backgroundOutline=1;size=15;fillColor=none;" parent="AfC1o_T5v_tklfGijFTy-1" vertex="1">
                    <mxGeometry x="285" y="240" width="100" height="60" as="geometry"/>
                </mxCell>
                <mxCell id="DS9jZfVLnJsxjmvzRqQD-1" value="&lt;font color=&quot;#ff0080&quot;&gt;IoT Communication&lt;/font&gt;" style="rounded=1;whiteSpace=wrap;html=1;fillColor=none;" parent="AfC1o_T5v_tklfGijFTy-1" vertex="1">
                    <mxGeometry x="425" y="240" width="120" height="60" as="geometry"/>
                </mxCell>
                <mxCell id="DS9jZfVLnJsxjmvzRqQD-2" value="&lt;font color=&quot;#ff0080&quot;&gt;Decode Payload&lt;/font&gt;" style="rounded=1;whiteSpace=wrap;html=1;fillColor=none;" parent="AfC1o_T5v_tklfGijFTy-1" vertex="1">
                    <mxGeometry x="580" y="240" width="120" height="60" as="geometry"/>
                </mxCell>
                <mxCell id="DS9jZfVLnJsxjmvzRqQD-3" value="&lt;font color=&quot;#ff0080&quot;&gt;Metadata Enhancement&lt;/font&gt;" style="rounded=1;whiteSpace=wrap;html=1;fillColor=none;" parent="AfC1o_T5v_tklfGijFTy-1" vertex="1">
                    <mxGeometry x="580" y="330" width="120" height="60" as="geometry"/>
                </mxCell>
                <mxCell id="DS9jZfVLnJsxjmvzRqQD-4" value="&lt;font color=&quot;#ff0080&quot;&gt;Database&lt;/font&gt;" style="shape=cylinder3;whiteSpace=wrap;html=1;boundedLbl=1;backgroundOutline=1;size=15;fillColor=none;" parent="AfC1o_T5v_tklfGijFTy-1" vertex="1">
                    <mxGeometry x="730" y="330" width="100" height="60" as="geometry"/>
                </mxCell>
                <mxCell id="DS9jZfVLnJsxjmvzRqQD-5" value="&lt;font color=&quot;#ff0080&quot;&gt;API&lt;/font&gt;" style="rounded=1;whiteSpace=wrap;html=1;fillColor=none;" parent="AfC1o_T5v_tklfGijFTy-1" vertex="1">
                    <mxGeometry x="870" y="330" width="120" height="60" as="geometry"/>
                </mxCell>
                <mxCell id="DS9jZfVLnJsxjmvzRqQD-6" value="&lt;font color=&quot;#ff0080&quot;&gt;Analytics&lt;/font&gt;" style="rounded=1;whiteSpace=wrap;html=1;fillColor=none;" parent="AfC1o_T5v_tklfGijFTy-1" vertex="1">
                    <mxGeometry x="910" y="240" width="120" height="60" as="geometry"/>
                </mxCell>
                <mxCell id="DS9jZfVLnJsxjmvzRqQD-7" value="" style="endArrow=classic;html=1;exitX=1;exitY=0.5;exitDx=0;exitDy=0;exitPerimeter=0;entryX=0;entryY=0.5;entryDx=0;entryDy=0;" parent="AfC1o_T5v_tklfGijFTy-1" source="DS9jZfVLnJsxjmvzRqQD-0" target="DS9jZfVLnJsxjmvzRqQD-1" edge="1">
                    <mxGeometry width="50" height="50" relative="1" as="geometry">
                        <mxPoint x="390" y="320" as="sourcePoint"/>
                        <mxPoint x="420" y="270" as="targetPoint"/>
                    </mxGeometry>
                </mxCell>
                <mxCell id="DS9jZfVLnJsxjmvzRqQD-8" value="" style="endArrow=classic;html=1;exitX=1;exitY=0.5;exitDx=0;exitDy=0;entryX=0;entryY=0.5;entryDx=0;entryDy=0;" parent="AfC1o_T5v_tklfGijFTy-1" source="DS9jZfVLnJsxjmvzRqQD-1" target="DS9jZfVLnJsxjmvzRqQD-2" edge="1">
                    <mxGeometry width="50" height="50" relative="1" as="geometry">
                        <mxPoint x="570" y="290" as="sourcePoint"/>
                        <mxPoint x="620" y="240" as="targetPoint"/>
                    </mxGeometry>
                </mxCell>
                <mxCell id="DS9jZfVLnJsxjmvzRqQD-9" value="" style="endArrow=classic;html=1;exitX=0.5;exitY=1;exitDx=0;exitDy=0;entryX=0.5;entryY=0;entryDx=0;entryDy=0;" parent="AfC1o_T5v_tklfGijFTy-1" edge="1">
                    <mxGeometry width="50" height="50" relative="1" as="geometry">
                        <mxPoint x="639.6199999999999" y="300" as="sourcePoint"/>
                        <mxPoint x="639.6199999999999" y="330" as="targetPoint"/>
                    </mxGeometry>
                </mxCell>
                <mxCell id="DS9jZfVLnJsxjmvzRqQD-10" value="" style="endArrow=classic;html=1;exitX=1;exitY=0.5;exitDx=0;exitDy=0;entryX=-0.017;entryY=0.496;entryDx=0;entryDy=0;entryPerimeter=0;" parent="AfC1o_T5v_tklfGijFTy-1" source="DS9jZfVLnJsxjmvzRqQD-3" target="DS9jZfVLnJsxjmvzRqQD-4" edge="1">
                    <mxGeometry width="50" height="50" relative="1" as="geometry">
                        <mxPoint x="790" y="310" as="sourcePoint"/>
                        <mxPoint x="840" y="260" as="targetPoint"/>
                    </mxGeometry>
                </mxCell>
                <mxCell id="DS9jZfVLnJsxjmvzRqQD-11" value="" style="endArrow=classic;html=1;entryX=0;entryY=0.5;entryDx=0;entryDy=0;exitX=1;exitY=0.5;exitDx=0;exitDy=0;exitPerimeter=0;" parent="AfC1o_T5v_tklfGijFTy-1" source="DS9jZfVLnJsxjmvzRqQD-4" target="DS9jZfVLnJsxjmvzRqQD-5" edge="1">
                    <mxGeometry width="50" height="50" relative="1" as="geometry">
                        <mxPoint x="840" y="360" as="sourcePoint"/>
                        <mxPoint x="830" y="310" as="targetPoint"/>
                    </mxGeometry>
                </mxCell>
                <mxCell id="DS9jZfVLnJsxjmvzRqQD-12" value="" style="endArrow=classic;html=1;entryX=0.5;entryY=1;entryDx=0;entryDy=0;exitX=0.831;exitY=0.007;exitDx=0;exitDy=0;exitPerimeter=0;" parent="AfC1o_T5v_tklfGijFTy-1" source="DS9jZfVLnJsxjmvzRqQD-5" target="DS9jZfVLnJsxjmvzRqQD-6" edge="1">
                    <mxGeometry width="50" height="50" relative="1" as="geometry">
                        <mxPoint x="930" y="290" as="sourcePoint"/>
                        <mxPoint x="980" y="240" as="targetPoint"/>
                    </mxGeometry>
                </mxCell>
                <mxCell id="DS9jZfVLnJsxjmvzRqQD-13" value="" style="endArrow=classic;html=1;entryX=0.833;entryY=1;entryDx=0;entryDy=0;exitX=0.5;exitY=0;exitDx=0;exitDy=0;entryPerimeter=0;" parent="AfC1o_T5v_tklfGijFTy-1" source="DS9jZfVLnJsxjmvzRqQD-6" edge="1">
                    <mxGeometry width="50" height="50" relative="1" as="geometry">
                        <mxPoint x="905" y="270" as="sourcePoint"/>
                        <mxPoint x="969.96" y="210" as="targetPoint"/>
                    </mxGeometry>
                </mxCell>
                <mxCell id="DS9jZfVLnJsxjmvzRqQD-14" value="" style="endArrow=classic;html=1;entryX=0.167;entryY=0;entryDx=0;entryDy=0;entryPerimeter=0;exitX=0.167;exitY=1.019;exitDx=0;exitDy=0;exitPerimeter=0;" parent="AfC1o_T5v_tklfGijFTy-1" target="DS9jZfVLnJsxjmvzRqQD-5" edge="1">
                    <mxGeometry width="50" height="50" relative="1" as="geometry">
                        <mxPoint x="890.0399999999995" y="211.13999999999987" as="sourcePoint"/>
                        <mxPoint x="900" y="220" as="targetPoint"/>
                    </mxGeometry>
                </mxCell>
                <mxCell id="DS9jZfVLnJsxjmvzRqQD-15" value="" style="endArrow=classic;html=1;exitX=-0.009;exitY=0.685;exitDx=0;exitDy=0;exitPerimeter=0;entryX=1.013;entryY=0.681;entryDx=0;entryDy=0;entryPerimeter=0;" parent="AfC1o_T5v_tklfGijFTy-1" source="DS9jZfVLnJsxjmvzRqQD-5" target="DS9jZfVLnJsxjmvzRqQD-4" edge="1">
                    <mxGeometry width="50" height="50" relative="1" as="geometry">
                        <mxPoint x="760" y="380" as="sourcePoint"/>
                        <mxPoint x="810" y="330" as="targetPoint"/>
                    </mxGeometry>
                </mxCell>
                <mxCell id="CxWoh7RjcUoB33MsCzRF-0" value="&lt;font color=&quot;#ff0080&quot;&gt;System UI&lt;/font&gt;" style="rounded=1;whiteSpace=wrap;html=1;fillColor=none;" parent="AfC1o_T5v_tklfGijFTy-1" vertex="1">
                    <mxGeometry x="870" y="150" width="120" height="60" as="geometry"/>
                </mxCell>
                <mxCell id="qP6HCpGnl-mEOkU61pBa-0" value="" style="endArrow=classic;html=1;fontColor=#FCFCFC;exitX=1;exitY=0.5;exitDx=0;exitDy=0;entryX=0.437;entryY=1.023;entryDx=0;entryDy=0;entryPerimeter=0;" parent="AfC1o_T5v_tklfGijFTy-1" source="hb5l4Cqd5cQDOpiyAQqJ-3" target="DS9jZfVLnJsxjmvzRqQD-0" edge="1">
                    <mxGeometry width="50" height="50" relative="1" as="geometry">
                        <mxPoint x="410" y="350" as="sourcePoint"/>
                        <mxPoint x="460" y="300" as="targetPoint"/>
                        <Array as="points">
                            <mxPoint x="330" y="420"/>
                        </Array>
                    </mxGeometry>
                </mxCell>
                <mxCell id="qP6HCpGnl-mEOkU61pBa-1" value="&lt;font color=&quot;#ff0080&quot;&gt;Controller&lt;/font&gt;" style="rounded=1;whiteSpace=wrap;html=1;fontColor=#FCFCFC;fillColor=none;" parent="AfC1o_T5v_tklfGijFTy-1" vertex="1">
                    <mxGeometry x="265" y="120" width="120" height="60" as="geometry"/>
                </mxCell>
                <mxCell id="AFsIsz2l_yB7QG3rzSub-0" value="&lt;font color=&quot;#80ff00&quot;&gt;Edge&lt;/font&gt;" style="text;html=1;strokeColor=none;fillColor=none;align=center;verticalAlign=middle;whiteSpace=wrap;rounded=0;fontColor=#FF0080;" parent="AfC1o_T5v_tklfGijFTy-1" vertex="1">
                    <mxGeometry x="100" y="470" width="60" height="30" as="geometry"/>
                </mxCell>
                <mxCell id="AFsIsz2l_yB7QG3rzSub-1" value="&lt;font color=&quot;#80ff00&quot;&gt;Application&lt;/font&gt;" style="text;html=1;strokeColor=none;fillColor=none;align=center;verticalAlign=middle;whiteSpace=wrap;rounded=0;fontColor=#FF0080;" parent="AfC1o_T5v_tklfGijFTy-1" vertex="1">
                    <mxGeometry x="900" y="470" width="60" height="30" as="geometry"/>
                </mxCell>
                <mxCell id="AFsIsz2l_yB7QG3rzSub-2" value="" style="endArrow=classic;html=1;fontColor=#80FF00;entryX=1;entryY=0.5;entryDx=0;entryDy=0;exitX=0;exitY=0.5;exitDx=0;exitDy=0;" parent="AfC1o_T5v_tklfGijFTy-1" source="qP6HCpGnl-mEOkU61pBa-1" target="hb5l4Cqd5cQDOpiyAQqJ-0" edge="1">
                    <mxGeometry width="50" height="50" relative="1" as="geometry">
                        <mxPoint x="320" y="220" as="sourcePoint"/>
                        <mxPoint x="370" y="170" as="targetPoint"/>
                    </mxGeometry>
                </mxCell>
                <mxCell id="AFsIsz2l_yB7QG3rzSub-3" value="" style="rounded=1;whiteSpace=wrap;html=1;fontColor=#80FF00;fillColor=none;" parent="AfC1o_T5v_tklfGijFTy-1" vertex="1">
                    <mxGeometry x="50" y="100" width="350" height="410" as="geometry"/>
                </mxCell>
                <mxCell id="AFsIsz2l_yB7QG3rzSub-4" value="" style="rounded=1;whiteSpace=wrap;html=1;fontColor=#80FF00;fillColor=none;" parent="AfC1o_T5v_tklfGijFTy-1" vertex="1">
                    <mxGeometry x="560" y="100" width="490" height="410" as="geometry"/>
                </mxCell>
                <mxCell id="AFsIsz2l_yB7QG3rzSub-5" value="" style="rounded=0;whiteSpace=wrap;html=1;fontColor=#80FF00;fillColor=none;" parent="AfC1o_T5v_tklfGijFTy-1" vertex="1">
                    <mxGeometry x="30" y="70" width="1040" height="470" as="geometry"/>
                </mxCell>
            </root>
        </mxGraphModel>
    </diagram>
</mxfile>